<svg id="Layer_1" data-name="Layer 1" xmlns="http://www.w3.org/2000/svg" viewBox="0 0 900 85.55"><defs><style>.cls-1{fill:#4d4d4d;}.cls-2{fill:#ff2f00;}.cls-3{fill:red;}.cls-4{fill:#ff0;}.cls-5{fill:#c1272d;}.cls-6{fill:#3be900;}.cls-7{fill:#c7db99;}.cls-8{fill:#ffcf66;}.cls-9{fill:#fff;stroke:#ffcf66;}.cls-13,.cls-14,.cls-9{stroke-miterlimit:10;}.cls-10{fill:#fc0;}.cls-11{fill:#f28e2c;}.cls-12{fill:#ffe58a;}.cls-13{fill:#b0d046;stroke:#b3d046;}.cls-14{fill:#c4d046;stroke:#c4d046;}.cls-15{fill:#b3d046;}</style></defs><title>Artboard 1</title><path class="cls-1" d="M48.66,59V70.19c0,12.2-19.49,12.2-19.49,0V37.44a20.49,20.49,0,0,1,6-14.6A20.79,20.79,0,0,1,47.06,17a12,12,0,0,1,2.58-.18h33c12.11,0,12.11,19.58,0,19.58H49.73a1,1,0,0,0,0,2.05H83.19a1.14,1.14,0,0,1,.54.09h.53a1.14,1.14,0,0,0,.54.09c.17.09.26.09.44.18s.36.08.54.08a.64.64,0,0,0,.44.18.69.69,0,0,0,.45.18c.08.09.26.18.35.27s.27.09.45.18.26.17.35.26.27.18.36.27.27.18.35.27.27.26.36.35l.27.27a.72.72,0,0,0,.35.36c.09.08.18.26.27.35s.18.27.27.36a.45.45,0,0,0,.18.35c.08.18.17.27.26.45s.09.27.18.35a11.63,11.63,0,0,1,.62,1.7.76.76,0,0,1,.09.44c.09.18.09.27.18.45v.44a1,1,0,0,1,.09.45,4.13,4.13,0,0,0,.09.44V49.1c0,.18-.09.27-.09.45a.79.79,0,0,1-.09.44v.44c-.09.18-.09.27-.18.45a.81.81,0,0,1-.09.45,8.56,8.56,0,0,1-8.63,6.58H49.82A1.11,1.11,0,0,0,48.66,59Z"/><path class="cls-1" d="M136.33,16.79a21.76,21.76,0,0,1,2.58.18,19.49,19.49,0,0,1,11.92,5.87,21.43,21.43,0,0,1,6.06,14.51V58.53A21.41,21.41,0,0,1,150.83,73a19,19,0,0,1-11.92,5.88,12.28,12.28,0,0,1-2.58.17H114.17a12.38,12.38,0,0,1-2.59-.17A19.06,19.06,0,0,1,99.66,73,21,21,0,0,1,93.6,58.53V37.35a21,21,0,0,1,6.06-14.51A19.51,19.51,0,0,1,111.58,17a21.94,21.94,0,0,1,2.59-.18Zm-.09,42.72a1,1,0,0,0,1.07-1V37.44a1.11,1.11,0,0,0-1.07-1.16H114.17a1.1,1.1,0,0,0-1,1.16V58.53a1,1,0,0,0,1,1Z"/><path class="cls-1" d="M201.83,16.79a21.76,21.76,0,0,1,2.58.18,19.54,19.54,0,0,1,11.93,5.87,21.42,21.42,0,0,1,6,14.51V58.53a21.4,21.4,0,0,1-6,14.51,19.08,19.08,0,0,1-11.93,5.88,12.28,12.28,0,0,1-2.58.17H179.67a12.28,12.28,0,0,1-2.58-.17A19.08,19.08,0,0,1,165.16,73a21,21,0,0,1-6-14.51V37.35a21,21,0,0,1,6-14.51A19.54,19.54,0,0,1,177.09,17a21.76,21.76,0,0,1,2.58-.18Zm-.09,42.72a1,1,0,0,0,1.07-1V37.44a1.11,1.11,0,0,0-1.07-1.16H179.67a1.1,1.1,0,0,0-1,1.16V58.53a1,1,0,0,0,1,1Z"/><path class="cls-1" d="M224.61,27.47c0-7.39,4-10.68,11.22-10.68h30.35a21.76,21.76,0,0,1,2.58.18,20.39,20.39,0,0,1,12,5.87,21.34,21.34,0,0,1,6,14.51V58.53a21.72,21.72,0,0,1-6,14.6,19.81,19.81,0,0,1-12,5.79,12.28,12.28,0,0,1-2.58.17H234c-6.23,0-9.35-4.71-9.35-10.41Zm19.49,8.9V59.6h22.08a1.08,1.08,0,0,0,1.07-1.07V37.44a1.09,1.09,0,0,0-1.07-1.07Z"/><path class="cls-1" d="M341.29,36.37H330a1,1,0,0,0-1,1.07V70.28c0,6.06-4.89,9.08-9.79,9.08s-9.79-3-9.79-9.08V37.44a1,1,0,0,0-1-1.07h-11.3c-12.11,0-12.11-19.49,0-19.49h44.14C353.49,16.88,353.49,36.37,341.29,36.37Z"/><path class="cls-1" d="M395.14,16.88c10.5,0,20.2,9,20.2,19.67V70.37c0,12.2-19.58,12.2-19.58,0V58c-7.65,0-15.31,0-23-.09H372V70.37c0,12.2-19.59,12.2-19.59,0V37.44a20.88,20.88,0,0,1,20.83-20.65C380.54,16.79,387.84,16.88,395.14,16.88Zm-22,21.54h21.54a1,1,0,1,0,0-2.05H373.06A1,1,0,1,0,373.15,38.42Z"/><path class="cls-1" d="M459.48,79.09H427.17c-12.19,0-12.19-19.4,0-19.4h32.49a1.09,1.09,0,0,0,1.16-1c0-.62-.62-1-1.25-1l-21.8-.09a19.62,19.62,0,0,1-14.24-6A20.41,20.41,0,0,1,435.45,17a12.89,12.89,0,0,1,2.67-.18H471c12.11,0,12.11,19.4,0,19.4H438.12a1,1,0,0,0-.71.27.93.93,0,0,0,0,1.43,1.12,1.12,0,0,0,.71.35h21.81a20.63,20.63,0,0,1,20.38,20.47C480.31,70.1,470.79,79.09,459.48,79.09Z"/><path class="cls-1" d="M535.67,36.37H524.36a1,1,0,0,0-1,1.07V70.28c0,6.06-4.89,9.08-9.79,9.08s-9.79-3-9.79-9.08V37.44a1,1,0,0,0-1-1.07h-11.3c-12.1,0-12.1-19.49,0-19.49h44.15C547.86,16.88,547.86,36.37,535.67,36.37Z"/><path class="cls-1" d="M589.33,57.56h-1v.08a1,1,0,0,0-.71.27.94.94,0,0,0,0,1.43,1.05,1.05,0,0,0,.71.26h12.38c12.1,0,12.1,19.58,0,19.58H588.35a20.58,20.58,0,0,1-14.5-6.05c-4-4-5.43-9.52-5.43-14.77,0-1.61-2-1.61-2,.09V70c0,12.19-19.58,12.19-19.58,0V25.87c0-6.05,4.8-9.08,9.7-9.08h32.4a20.74,20.74,0,0,1,20.82,20.56A20.4,20.4,0,0,1,589.33,57.56Zm-23-21.28v2H589c.62,0,1.24-.36,1.15-1.07a1,1,0,0,0-1.06-1Z"/><path class="cls-1" d="M654.57,16.79a21.76,21.76,0,0,1,2.58.18,19.54,19.54,0,0,1,11.93,5.87,21.42,21.42,0,0,1,6,14.51V58.53a21.4,21.4,0,0,1-6,14.51,19.08,19.08,0,0,1-11.93,5.88,12.28,12.28,0,0,1-2.58.17H632.41a12.28,12.28,0,0,1-2.58-.17A19.06,19.06,0,0,1,617.9,73a21,21,0,0,1-6-14.51V37.35a21,21,0,0,1,6-14.51A19.51,19.51,0,0,1,629.83,17a21.76,21.76,0,0,1,2.58-.18Zm-.09,42.72a1,1,0,0,0,1.07-1V37.44a1.11,1.11,0,0,0-1.07-1.16H632.41a1.1,1.1,0,0,0-1,1.16V58.53a1,1,0,0,0,1,1Z"/><path class="cls-1" d="M719.8,57.91h-23V70.37c0,12.2-19.49,12.2-19.49,0V25.87c0-6.05,4.81-9.08,9.61-9.08h32.49a20.56,20.56,0,1,1,.35,41.12Zm-23-21.63v2h22.7a1,1,0,0,0,1.15-1.07,1.08,1.08,0,0,0-1.15-1Z"/><path class="cls-1" d="M805.07,70.19c0,12.11-19.58,12.11-19.58,0V57.73H761.72V70.19c0,12.11-19.58,12.11-19.58,0V25.78c0-12.19,19.58-12.19,19.58,0V38.24h23.77V25.78c0-12.19,19.58-12.19,19.58,0Z"/><path class="cls-1" d="M827.67,59.69h32.66c12.11,0,12.11,19.4,0,19.4H827.58a11.42,11.42,0,0,1-2.49-.17A19.64,19.64,0,0,1,813.25,73a20,20,0,0,1-6-14.15,13.26,13.26,0,0,1,5.16-11,13.07,13.07,0,0,1-5.16-10.68A20.5,20.5,0,0,1,825.09,17a10.8,10.8,0,0,1,2.49-.18h32.75c12.11,0,12.11,19.4,0,19.4H827.67a1,1,0,1,0,0,2.05H861a11.24,11.24,0,0,1,1.51.18c.18.09.36.09.53.18s.27.09.36.09a1.43,1.43,0,0,0,.45.17,1.39,1.39,0,0,0,.44.18c.18.09.27.18.45.27s.26.09.35.18.27.18.45.26a1.33,1.33,0,0,0,.35.27,1.24,1.24,0,0,0,.36.27,1.06,1.06,0,0,0,.27.35,1.33,1.33,0,0,1,.35.27,1.24,1.24,0,0,0,.27.36c.09.09.18.26.27.35s.17.27.26.36a1.24,1.24,0,0,0,.27.36c.09.17.18.26.18.44s.18.27.27.36a13.77,13.77,0,0,1,.62,1.69c0,.18.09.27.09.44a.81.81,0,0,1,.09.45.78.78,0,0,1,.09.44,4.33,4.33,0,0,0,.08.45v.44a3.9,3.9,0,0,0,.09.45v.89a4.13,4.13,0,0,0-.09.44v.45c0,.18-.08.27-.08.44a.81.81,0,0,1-.09.45.78.78,0,0,1-.09.44c0,.18-.09.27-.09.45a8.63,8.63,0,0,1-8.64,6.58H827.67A1,1,0,1,0,827.67,59.69Z"/><path class="cls-2" d="M27.21,36.43a7.3,7.3,0,0,0,1.2,5.91A4.85,4.85,0,0,0,34,43.94a5.42,5.42,0,0,0,2.71-3.15,16.14,16.14,0,0,0,.77-4.19l.39-4.3a5,5,0,0,1,.49-2C39,29,40.57,28.6,42,28.51a11.23,11.23,0,0,0,4.14-.57A6.77,6.77,0,0,0,49.2,24,9.67,9.67,0,0,0,50,19.18a4.74,4.74,0,0,0-2.79-3.78c-1.68-.62-3.53,0-5.19.69-3.45,1.36-7,2.82-9.47,5.64a23.17,23.17,0,0,0-1.89,2.69,30.9,30.9,0,0,0-3.17,5.95A10.41,10.41,0,0,0,27.12,37"/><path class="cls-3" d="M26.13,36.13c-.48,2.75,0,5.84,2.21,7.75a5.72,5.72,0,0,0,7.1.48c2.45-1.82,2.87-4.94,3.13-7.76a31.92,31.92,0,0,1,.54-5.27c.48-1.77,2.67-1.68,4.14-1.74a7.7,7.7,0,0,0,4.07-1,7.73,7.73,0,0,0,2.57-3.3c1.21-2.66,1.93-6,.31-8.63s-4.49-3-7.25-2.08a33.31,33.31,0,0,0-8.36,3.88c-3,2-4.86,5-6.59,8.13-1.85,3.28-3.07,7-2,10.74a1.13,1.13,0,0,0,2.17-.59c-.83-2.84,0-5.68,1.31-8.23a27.77,27.77,0,0,1,4.33-6.53,18.31,18.31,0,0,1,5.92-3.74c2-.88,5.54-2.91,7.62-1.41s1.58,4.76.74,6.91a6.43,6.43,0,0,1-1.94,2.91c-1.09.79-2.5.69-3.78.75-2,.1-4.32.65-5.22,2.7a10.84,10.84,0,0,0-.57,3.44c-.13,1.38-.24,2.78-.39,4.16-.28,2.39-1.32,6-4.43,5.45s-3.95-3.77-3.49-6.39c.24-1.41-1.93-2-2.17-.59Z"/><path class="cls-4" d="M137,18l-.26,9.33c-.05,1.87-.07,3.85.86,5.46s3.2,2.62,4.73,1.55c.75-.52,1.31-1.46,2.21-1.46,1.17,0,1.61,1.52,1.67,2.68a28.87,28.87,0,0,0,.59,6.44,6.82,6.82,0,0,0,3.93,4.83,5,5,0,0,0,5.67-1.93c1.44-2.22.85-5.11.86-7.75,0-3.2,1-6.42.39-9.57-.64-3.64-3.27-6.7-6.4-8.66A35.41,35.41,0,0,0,140.9,15c-1.21-.31-2.66-.55-3.55.32s-.75,2-.66,3.08"/><path class="cls-4" d="M135.84,18l-.17,6.14a47.11,47.11,0,0,0,0,5.82c.27,2.81,1.85,5.8,5,5.94a3.69,3.69,0,0,0,1.93-.42c.56-.31,1.15-1.24,1.74-1.37,1-.22.78,3.58.82,4.24.15,3.21.86,6.65,3.59,8.68a6.08,6.08,0,0,0,7.66-.44c2.57-2.32,2-6,2-9-.06-3.75,1.16-7.49.14-11.2a14.52,14.52,0,0,0-5.33-7.44c-3.24-2.48-7.21-3.75-11.11-4.77-1.55-.41-3.38-.95-4.88-.08s-1.74,2.72-1.62,4.34c.11,1.44,2.36,1.45,2.25,0s0-2.71,1.71-2.54A24.32,24.32,0,0,1,144,17.05,23.3,23.3,0,0,1,152.14,21a11.86,11.86,0,0,1,4.32,6.55c.69,3.18-.35,6.45-.36,9.65,0,2.47.85,6-1.29,7.85s-5,.72-6.25-1.55c-1.55-2.74-.84-5.84-1.36-8.79-.35-2-2.1-3.75-4.16-2.43-1.24.8-1.9,2-3.51,1-1.3-.83-1.62-2.45-1.7-3.89-.18-3.75.16-7.59.26-11.35,0-1.45-2.21-1.44-2.25,0Z"/><path class="cls-5" d="M30,38.06a3.36,3.36,0,0,0,2.67-.61l-.6-.75.49-.2a2,2,0,0,1-.11-1.76l.14-.54a1.39,1.39,0,0,1,.3-.65c.13-.12.29-.19.4-.31a1.11,1.11,0,0,0,.2-.39l.53-1.48a.65.65,0,0,1,.23-.36c.15-.07.32,0,.48-.06.31-.06.46-.42.48-.73a5,5,0,0,1,0-.95c.07-.31.4-.59.69-.47a3.63,3.63,0,0,0,.22-1.5,1.22,1.22,0,0,0,1.46-1c0-.28,0-.61.22-.78s.26-.09.37-.16c.31-.18.28-.64.46-.95.36-.64,1.54-.59,1.68-1.31a.93.93,0,0,1,.07-.33c.1-.17.35-.17.53-.25.45-.2.45-.83.73-1.23a.24.24,0,0,1,.21-.14.29.29,0,0,1,.19.11l.48.5c.19-.08.24-.32.25-.52.1-2.29-1.36-4.35-3-5.95a4.47,4.47,0,0,0-1.23-.94A5,5,0,0,0,37.11,14,12.84,12.84,0,0,0,32,14a9.45,9.45,0,0,0-5.07,4.16,3.56,3.56,0,0,0-.45-1.77l-2.09,4a8.48,8.48,0,0,0-.93,2.3,7.87,7.87,0,0,0-.11,1.54,1,1,0,0,0,.1.54.36.36,0,0,0,.47.16V30a6,6,0,0,0,.1,1.47,6.93,6.93,0,0,0,.69,1.67,15.25,15.25,0,0,0,2,3.2A4.89,4.89,0,0,0,30,38.06"/><path d="M29.93,38.42a4,4,0,0,0,3-.64.39.39,0,0,0,.08-.59l-.6-.76-.17.63.49-.2a.38.38,0,0,0,.22-.55,2.64,2.64,0,0,1,.48-2.65,7.1,7.1,0,0,0,.76-1.45,1.78,1.78,0,0,1,.71-.89c.16-.12.35-.17.48-.33.3-.34.15-1.81.62-1.81a.38.38,0,0,0,.36-.28,5.09,5.09,0,0,0,.24-1.6l-.38.38a1.67,1.67,0,0,0,1.73-1c.37-.64.66-1.3,1-1.95s1.23-.77,1.7-1.35c.25-.31.57-.52.84-.83s.3-1.1.83-.55a.38.38,0,0,0,.53,0c1-1.21-.12-3.59-.84-4.71-1.09-1.69-2.54-3.35-4.61-3.66s-4.3-.58-6.31.25A10.57,10.57,0,0,0,26.59,18l.7.19a4.79,4.79,0,0,0-.51-2,.38.38,0,0,0-.65,0c-1,1.89-2.38,3.87-3,5.94-.23.82-.72,3.23.73,3.11l-.38-.37c0,1.71,0,3.41,0,5.12a7.1,7.1,0,0,0,.94,3.51c1.21,2.31,2.75,4.65,5.57,4.92.48,0,.48-.71,0-.75-2.72-.26-4.22-3-5.26-5.22a8,8,0,0,1-.5-3.62v-4a.38.38,0,0,0-.37-.38c-.39,0-.09-1.8,0-2a9,9,0,0,1,.95-2.21l2-3.75h-.65a3.5,3.5,0,0,1,.41,1.58.38.38,0,0,0,.7.19A10.39,10.39,0,0,1,30.65,15a8.38,8.38,0,0,1,5.17-.76,8,8,0,0,1,2.63.51,6.49,6.49,0,0,1,1.91,1.67,10.21,10.21,0,0,1,1.48,2.14c.3.62,1,2.34.48,3h.53c-.41-.42-.87-1-1.42-.48a1.78,1.78,0,0,0-.23.43,3.81,3.81,0,0,1-.71.84c-.35.32-.31.48-.61.86s-.77.39-1.12.65-.37.51-.58.9-.4.37-.64.63c-.5.55-.18,1.72-1.36,1.59a.37.37,0,0,0-.37.37,4.7,4.7,0,0,1-.21,1.4l.36-.27c-.77,0-1,.48-1.11,1.15a1.51,1.51,0,0,1-.43,1c-.08.06-.24,0-.33.08a1.81,1.81,0,0,0-.47.76,5.79,5.79,0,0,1-.92,1.8,2.41,2.41,0,0,0-.48,1,2.91,2.91,0,0,0,.05,2.45l.22-.55-.49.19a.38.38,0,0,0-.16.63l.6.76.07-.59a3.2,3.2,0,0,1-2.38.57c-.48-.07-.68.65-.2.72Z"/><path class="cls-6" d="M27.09,16.37a2,2,0,0,1,.25-1.21.77.77,0,0,0-.85-.14,2.15,2.15,0,0,0-.74.53l-1.18,1.13a1.17,1.17,0,0,1-.95.46c-.41-.09-.6-.56-.94-.79a2.38,2.38,0,0,0-1-.25,5,5,0,0,0-.85-.07.93.93,0,0,0-.73.38,1.32,1.32,0,0,0-.11.71L20,18a.51.51,0,0,0,.07.32.2.2,0,0,0,.28.07c.05,0,.06-.1.1-.14s.25-.09.39-.05a4.54,4.54,0,0,1,1.6.8.78.78,0,0,1,.25.26,1,1,0,0,1,.05.38l-.05,2.49a4.86,4.86,0,0,1-.21,1.66A7.82,7.82,0,0,0,22,25.07a.55.55,0,0,0,.57-.1,6,6,0,0,0,2.2-2.56,2,2,0,0,1,.88,1c.05.21,0,.42.08.63a1.35,1.35,0,0,0,.77.88,2.9,2.9,0,0,0,1.17.22,3.38,3.38,0,0,0-.73-1.42A4.13,4.13,0,0,1,26.31,22a2.18,2.18,0,0,1,0-.57c.05-.3.19-.57.25-.86a.77.77,0,0,0-.24-.81,1,1,0,0,1,.79-.07,1.46,1.46,0,0,1,.44.29,3.44,3.44,0,0,1,1.11,2.1.56.56,0,0,0,.53-.42,1.64,1.64,0,0,0,0-.73l-.17-1c-.07-.42-.21-.92-.61-1.06-.24-.08-.6-.07-.66-.31s.13-.35.29-.44.36-.19.4-.38a2.14,2.14,0,0,0-1.15,0,3.14,3.14,0,0,1-.51.12.46.46,0,0,1-.44-.23.61.61,0,0,1,.1-.53A6.29,6.29,0,0,0,27,16a1.15,1.15,0,0,0-.15-1.16"/><path d="M27.47,16.37a1.72,1.72,0,0,1,.2-1,.41.41,0,0,0-.06-.46c-1.13-1-2.34.61-3.09,1.32-.29.28-.64.73-1.05.42-.2-.17-.34-.41-.55-.57a3.69,3.69,0,0,0-1.83-.4,1.33,1.33,0,0,0-1.36.69,2.08,2.08,0,0,0-.11.86,5,5,0,0,0,.05,1.09.66.66,0,0,0,.4.49.6.6,0,0,0,.35,0c.12,0,.18-.15.28-.19s.05,0,.23,0,.39.14.58.24.81.36.87.72a7.39,7.39,0,0,1,0,1.41c0,.44,0,.89,0,1.34a4.11,4.11,0,0,1-.25,1.48A7,7,0,0,0,21.63,25a.38.38,0,0,0,.26.46c.67.23,1.39-.47,1.83-.9a6.37,6.37,0,0,0,1.36-1.93l-.51.13a1.49,1.49,0,0,1,.75,1.16,1.66,1.66,0,0,0,.32.83,2.49,2.49,0,0,0,2,.8.37.37,0,0,0,.36-.47,3.19,3.19,0,0,0-.63-1.31,3.94,3.94,0,0,1-.66-1.53,4.66,4.66,0,0,1,.22-1.7,1.17,1.17,0,0,0-.35-1.05l-.08.59c1-.44,1.68,1.42,1.79,2.1a.38.38,0,0,0,.36.28c1.37-.14.87-1.92.66-2.8a1.51,1.51,0,0,0-.68-1.07,1.34,1.34,0,0,0-.26-.09l-.17,0h0c.18-.2.4-.22.53-.51a.38.38,0,0,0-.22-.55,2.81,2.81,0,0,0-1.19,0c-.17,0-.58.26-.58,0,0-.15.34-.54.42-.67a1.73,1.73,0,0,0,0-2c-.3-.38-.83.15-.53.53.67.85-1,1.7-.66,2.59a.8.8,0,0,0,.73.5,2.64,2.64,0,0,0,.68-.13,2,2,0,0,1,.95,0l-.23-.55c-.17.38-.67.39-.73.87a.66.66,0,0,0,.48.7,1.93,1.93,0,0,1,.47.13.9.9,0,0,1,.29.58c.07.29.46,1.82.06,1.86L29,22c-.2-1.29-1.33-3.24-2.89-2.55a.38.38,0,0,0-.07.59c.37.33-.06,1-.12,1.36a3.45,3.45,0,0,0,.13,1.39,5.17,5.17,0,0,0,.52,1.18,3.41,3.41,0,0,1,.7,1.33l.36-.48a2.09,2.09,0,0,1-1.2-.3c-.38-.27-.36-.59-.43-1A2.24,2.24,0,0,0,25,22.09a.38.38,0,0,0-.52.13,5.52,5.52,0,0,1-.9,1.42c-.24.27-1,1.21-1.44,1.07l.26.46a12.14,12.14,0,0,1,.51-1.25,4.64,4.64,0,0,0,.22-1.39c0-.94.08-1.91.05-2.86,0-.77-.6-1.12-1.24-1.44s-1.35-.66-1.84,0l.22-.17c.21-.08.11-.36.11-.58a3.75,3.75,0,0,1,0-.58c.06-.66.75-.49,1.22-.43a1.65,1.65,0,0,1,1,.31,4.26,4.26,0,0,0,.61.59c.59.36,1.17,0,1.62-.42s.69-.66,1-1,.8-.89,1.21-.54L27,15a2.36,2.36,0,0,0-.3,1.4c0,.48.79.48.75,0Z"/><path class="cls-6" d="M165.28,23.85a4.53,4.53,0,0,0-.44,3.12c.36,1,1.89,1.58,2.53.72,0,.5.68.69,1.17.59s1-.33,1.47-.12.51.46.84.51c.5.07.85-.52,1.34-.63s1,.33,1.47.58a3.67,3.67,0,0,0,1.43.31,19.41,19.41,0,0,0,4.44-.22,3.41,3.41,0,0,1,1.27-.07,4.44,4.44,0,0,1,.76.3,5.83,5.83,0,0,0,4.85-.11,3.6,3.6,0,0,1,1.18-.47.87.87,0,0,1,1,.62c1.26-1.1,3.16-.82,4.82-.64a25.42,25.42,0,0,0,6.86-.18,11.35,11.35,0,0,1,1.17-.16,7.79,7.79,0,0,1,1.08,0l5.69.2a5.14,5.14,0,0,1,2.06.35,1.77,1.77,0,0,0,.9.29c.69-.07,1-1.12,1.66-1.17.42,0,.76.33,1.13.53a2.1,2.1,0,0,0,2-.16,5.56,5.56,0,0,0,1.52-1.5A7.85,7.85,0,0,0,218.93,24a7.27,7.27,0,0,0-.16-3.81,25.09,25.09,0,0,0-6.27-10.9,8.72,8.72,0,0,0-2.23-1.83,9.07,9.07,0,0,0-2.65-.82c-2.22-.42-4.71-.58-6.56.72a1.15,1.15,0,0,0-1.44-.51,8.49,8.49,0,0,0-1.47.81c-1.86,1-4.21.22-6.21.9a3.63,3.63,0,0,1-1.56.39,6,6,0,0,1-.91-.29c-1.15-.35-2.35.19-3.48.62a17.83,17.83,0,0,1-5.46,1.12,5.84,5.84,0,0,0-2.57.45c-.57.31-1,.84-1.68.92-.23,0-.47,0-.7,0a2.48,2.48,0,0,0-.91.36L171,14.23c-2.56,1.43-5.41,3.28-5.78,6.19-.16,1.2.12,2.54-.59,3.52"/><path d="M163.83,23.45c-.66,1.71-1.08,3.82.41,5.24a3,3,0,0,0,4.19.06l-2.51-.67a2.22,2.22,0,0,0,1.7,1.65,3.45,3.45,0,0,0,1.32,0c.63-.08.63,0,1.21.27a2.11,2.11,0,0,0,1.38.1c.07,0,1-.52.8-.52.31,0,.93.53,1.27.63a6.39,6.39,0,0,0,1.31.21,17.33,17.33,0,0,0,3.3,0c.56-.05,1.15-.21,1.72-.23a4,4,0,0,1,1.62.39,7.29,7.29,0,0,0,3.28.3,7.19,7.19,0,0,0,1.6-.39c.25-.11.5-.21.74-.33.55-.12.53-.37,0-.74.32.77,1.35,1.56,2.2.89C191,29,193.76,30,195.68,30c2.3,0,4.54-.55,6.82-.49,2.48.06,5.3-.19,7.64.64a2.42,2.42,0,0,0,2.53-.44,2,2,0,0,0,.37-.39l.09-.1c.24-.22.08-.24-.49-.07,0,.13,1.14.61,1.23.64,2.28.61,4-1.16,5.17-2.82a7.81,7.81,0,0,0,1.32-6.55A25.59,25.59,0,0,0,214,8.67a10.45,10.45,0,0,0-6.36-3.56c-2.5-.42-5.11-.48-7.31.94l2.05.54a2.6,2.6,0,0,0-2.17-1.31c-1.13,0-1.84.63-2.8,1.07-1.78.82-4,.18-5.85.76a2.35,2.35,0,0,1-1.37.2A7.36,7.36,0,0,0,188.6,7a9.5,9.5,0,0,0-3,.78,17.44,17.44,0,0,1-3.61.94c-1.05.15-2.12.11-3.17.27a7.65,7.65,0,0,0-2.43,1.06,4,4,0,0,1-1.21.24,5.22,5.22,0,0,0-1.27.52,60.15,60.15,0,0,0-5.56,3.2,11.56,11.56,0,0,0-3.8,3.69,6.86,6.86,0,0,0-.86,2.68c-.1.91.11,1.95-.38,2.76-1,1.66,1.59,3.17,2.59,1.52s.36-3.27,1-4.88a7.25,7.25,0,0,1,3-3.18c1.52-1,3.15-1.85,4.73-2.74a5.61,5.61,0,0,1,1.22-.62c.37-.1.78,0,1.16-.15.72-.22,1.22-.8,1.9-1.05a11.13,11.13,0,0,1,2.58-.26,19.76,19.76,0,0,0,3.15-.54c.91-.24,1.76-.59,2.64-.89a3.41,3.41,0,0,1,1.83-.29c.3.06.58.22.9.28a6,6,0,0,0,2.74-.49,11.14,11.14,0,0,1,2.38-.18,10,10,0,0,0,2.73-.32,6.32,6.32,0,0,0,1.08-.45l.72-.44c.47-.11.52-.24.14-.39a1.51,1.51,0,0,0,2,.53c1.62-1,3.57-.91,5.4-.56A7.86,7.86,0,0,1,212,11a22.43,22.43,0,0,1,5.47,10.26,5.44,5.44,0,0,1-1.85,5.22c-.83.77-1.07.22-1.93-.09a2.32,2.32,0,0,0-2.24.35c-.24.17-.46.57-.71.7.55-.28-.38-.41-.69-.49a15.71,15.71,0,0,0-3.29-.25,35.87,35.87,0,0,0-6.13-.06,28.87,28.87,0,0,1-7,.27c-2-.19-4.12-.48-5.81.82l2.2.9a2.43,2.43,0,0,0-2.09-1.7c-1.15-.11-2,.68-3.08.93a5.72,5.72,0,0,1-3.26-.48,6.85,6.85,0,0,0-3.15,0,14.93,14.93,0,0,1-3.34.07c-1-.11-1.62-.84-2.59-.9a2.46,2.46,0,0,0-1.35.33c-.17.11-.35.23-.51.35.49-.07.54-.18.13-.34a2.18,2.18,0,0,0-1.48-.27,5,5,0,0,0-.77.14c-.45.05-.35.23.29.55a1.51,1.51,0,0,0-2.5-.67c.18-.19.18.19,0-.08s0,.19-.14-.34a3.92,3.92,0,0,1,.53-1.95c.7-1.8-2.2-2.58-2.9-.8Z"/><path d="M170.64,19.08A7.18,7.18,0,0,1,175,17.72c1.42,0,3,.63,4.27-.25.15-.11,0-.37-.16-.26-1.37.94-3.16.13-4.69.22a7.49,7.49,0,0,0-3.89,1.39c-.16.12,0,.38.15.26Z"/><path d="M180.44,15.23c.22-.45.76-.59,1.21-.72a6.77,6.77,0,0,1,1.32-.23,9.93,9.93,0,0,1,2.72.25c1.37.25,2.85.41,4-.51.15-.12-.06-.33-.21-.21C188,15,186,14.19,184.36,14a7.47,7.47,0,0,0-2.45.14c-.62.14-1.43.32-1.73.94-.09.17.17.32.26.15Z"/><path d="M170.79,22.94a10.37,10.37,0,0,1,6.07-1.53c1.91.13,3.65,1.23,5.57,1.14s4.23-1.83,6.28-1.32a18.06,18.06,0,0,0,2.32.64,16.19,16.19,0,0,0,3.19,0c.19,0,.19-.31,0-.3a15,15,0,0,1-3.54-.05,14.67,14.67,0,0,0-2.74-.69c-2.32,0-4.22,1.79-6.64,1.35-1-.18-1.92-.64-2.9-.85a10.06,10.06,0,0,0-2.68-.23,10.71,10.71,0,0,0-5.09,1.58.15.15,0,0,0,.16.26Z"/><path d="M172.19,24.71a13.28,13.28,0,0,0,10.49.2c.17-.07.1-.36-.08-.29a13,13,0,0,1-10.26-.16c-.18-.08-.33.17-.15.25Z"/><path d="M200.39,23.55a6.86,6.86,0,0,1,4.33-.61,31.76,31.76,0,0,0,3.46,1.27A8.9,8.9,0,0,0,214.54,23a.15.15,0,0,0-.16-.26,8.56,8.56,0,0,1-7.21.92A15.32,15.32,0,0,0,204,22.5a8.15,8.15,0,0,0-3.72.76c-.18.07-.1.36.08.29Z"/><path d="M188.57,18.51c3.32-2.28,7.93-2,11.71-1.29,3.53.64,7.13,2.34,10.74,1.18.18-.06.1-.35-.08-.29-4,1.29-8.28-1-12.28-1.44-3.42-.41-7.29-.45-10.25,1.58-.15.11,0,.37.16.26Z"/><path d="M190.78,12.06c1.72-.23,3.44-.49,5.16-.7a9.33,9.33,0,0,1,4.62.57,12,12,0,0,0,8.25.29c.18-.06.11-.35-.08-.29a11.11,11.11,0,0,1-4.75.57,25.05,25.05,0,0,1-4.5-1.26,9.2,9.2,0,0,0-3.91-.13l-4.87.66c-.19,0-.11.32.08.29Z"/><path class="cls-7" d="M175.86,19.46a72.84,72.84,0,0,1,7.51-.73,4.18,4.18,0,0,1,1.12.05c.38.08.83.24,1.1,0s.2-.47.4-.63a.52.52,0,0,1,.76.3.84.84,0,0,1-.32.85,2.44,2.44,0,0,1-.86.41l-3.13,1a1.65,1.65,0,0,1-.95.11,2.34,2.34,0,0,1-.55-.27,4.94,4.94,0,0,0-2.57-.16,2.42,2.42,0,0,1-2.33-.83"/><path class="cls-7" d="M175.9,19.61q3.09-.46,6.22-.66c.48,0,1-.07,1.44-.08a7.32,7.32,0,0,1,1.33.15,1,1,0,0,0,.67-.05.75.75,0,0,0,.25-.25c.05-.09.1-.18.14-.27.48-.29.67-.23.57.2a.48.48,0,0,1-.29.6,2.09,2.09,0,0,1-.4.19c-.22.09-.46.15-.69.23l-1.37.43-1.37.44a1.84,1.84,0,0,1-.87.11,4.33,4.33,0,0,1-.69-.33c-1.4-.58-3.67.64-4.67-.87-.1-.16-.36,0-.26.15.85,1.29,2.5.82,3.78.82a3,3,0,0,1,1.44.38A1.35,1.35,0,0,0,182,21a20.81,20.81,0,0,0,2.82-.87c.62-.2,1.49-.33,1.9-.9A.79.79,0,0,0,186.5,18c-.74-.32-.78.73-1.36.78a8.78,8.78,0,0,1-1.11-.17,14.74,14.74,0,0,0-1.49.05c-2.25.13-4.5.37-6.72.7-.19,0-.11.32.08.29Z"/><path class="cls-7" d="M195.69,19.13a18.58,18.58,0,0,1,4.15-.2,2.2,2.2,0,0,1,1.18.31.83.83,0,0,1,.28,1.08c-.19.27-.56.34-.86.48a1.69,1.69,0,0,0-.79.77.41.41,0,0,1-.17.22.34.34,0,0,1-.26,0,6.9,6.9,0,0,1-1.81-.77,3.63,3.63,0,0,0-.81-.41,4.14,4.14,0,0,0-.93-.1A12.31,12.31,0,0,1,193,20a1.57,1.57,0,0,1-.79-.37.57.57,0,0,1,0-.79.87.87,0,0,1,.62-.09l3,.37"/><path class="cls-7" d="M195.73,19.28a17.74,17.74,0,0,1,2.72-.24c.41,0,.81,0,1.21,0a2.11,2.11,0,0,1,1.35.35.83.83,0,0,1,.25.56c0,.37-.35.47-.63.58a2.82,2.82,0,0,0-.66.36c-.21.18-.42.72-.71.72a3.42,3.42,0,0,1-1.2-.45,5.45,5.45,0,0,0-1.92-.82,13.64,13.64,0,0,1-2.46-.36,3.94,3.94,0,0,1-1.22-.38c-.26-.17-.54-.62.06-.77a2.14,2.14,0,0,1,.62.06l2.63.33c.2,0,.19-.28,0-.3L193,18.6c-.48-.05-1.14,0-1.09.62s.66.8,1.15.93a12,12,0,0,0,2.65.5,2.9,2.9,0,0,1,1.33.29c.4.23.79.46,1.21.65s1.18.63,1.52.14a2,2,0,0,1,1-.88,1.38,1.38,0,0,0,.7-.43,1,1,0,0,0-.3-1.3,4.19,4.19,0,0,0-2.4-.38,19.53,19.53,0,0,0-3.06.25c-.19,0-.11.32.08.29Z"/><path class="cls-7" d="M187.1,23.83a37.24,37.24,0,0,1,6.07.26c1.4.22,2.89.59,4.18,0a1.23,1.23,0,0,1-.68.68c-2.43,1.23-5.38-.15-8,.31a13.39,13.39,0,0,1-2.16.38,3.17,3.17,0,0,1-2.78-1.73.17.17,0,0,1,0-.14c0-.06.1-.08.16-.09a9.07,9.07,0,0,1,3.48.22"/><path class="cls-7" d="M187.1,24a38.36,38.36,0,0,1,5.77.22c1.51.21,3,.65,4.52,0l-.17-.22c-.56,1.32-3,1.18-4.14,1.08a21.15,21.15,0,0,0-4.13-.21c-1.44.16-2.78.82-4.13-.08-.22-.15-.82-.6-.86-.88s.42-.33.73-.34a8.9,8.9,0,0,1,2.57.29c.19,0,.27-.25.08-.29-.56-.14-4-.82-3.8.19.11.62,1,1.23,1.48,1.49a3.39,3.39,0,0,0,2.08.29,16.37,16.37,0,0,1,3.1-.41c1,0,1.92.18,2.88.25,1.25.11,3.78.21,4.4-1.23,0-.1,0-.28-.17-.22-1.59.67-3.3.08-4.92-.1a42.5,42.5,0,0,0-5.29-.16.15.15,0,0,0,0,.3Z"/><path class="cls-7" d="M169.49,20c.12-.48-.2-1-.19-1.45,0-.76.77-1.25,1.44-1.61a4,4,0,0,1,1.4-.54,11.42,11.42,0,0,1,1.17,0,3.18,3.18,0,0,0,2.51-1.35,4.42,4.42,0,0,1,.56-.78.8.8,0,0,1,.35-.19.72.72,0,0,1,.74.59,1.47,1.47,0,0,1-.63,1.44,3.92,3.92,0,0,1-1.55.6c-2,.44-4.07.81-5.54,2.17a.69.69,0,0,0-.16.22,1.45,1.45,0,0,0,0,.36c0,.12-.09.26-.21.23"/><path class="cls-7" d="M169.64,20.06c.11-.7-.43-1.37,0-2a3.65,3.65,0,0,1,1.62-1.16,2.74,2.74,0,0,1,1.19-.32c.38,0,.75.05,1.13,0a3.41,3.41,0,0,0,1.65-.66,3.17,3.17,0,0,0,.57-.53,6.69,6.69,0,0,1,.66-.92c.63-.54,1,.24.87.78a1.62,1.62,0,0,1-.78.93,8.1,8.1,0,0,1-2.16.62c-.66.15-1.31.3-2,.51a8.06,8.06,0,0,0-1.94.87,4.28,4.28,0,0,0-.83.64.67.67,0,0,0-.19.25c0,.09,0,.5-.07.51s-.19.31,0,.3a.35.35,0,0,0,.36-.34c0-.22-.06-.31.11-.51a2.46,2.46,0,0,1,.56-.45,7.86,7.86,0,0,1,2.26-1c.79-.24,1.6-.41,2.4-.59a3.86,3.86,0,0,0,2.13-.93,1.41,1.41,0,0,0,.27-1.65c-.39-.6-1-.43-1.4.05a8.83,8.83,0,0,1-.72,1,3,3,0,0,1-1.13.71c-.83.3-1.7,0-2.53.27a5.05,5.05,0,0,0-2.11,1.23,1.55,1.55,0,0,0-.44.87c-.05.52.28,1,.2,1.52,0,.19.26.27.29.08Z"/><path class="cls-8" d="M240,35.26c2.22,6.17,1.83,13,.49,19.41-.43,2.06-1,4.22-2.61,5.61,1.61.54,3.36,0,5-.38a42.56,42.56,0,0,1,18.69-.42,21.09,21.09,0,0,0,5.57.73,20.7,20.7,0,0,1-1.34-4.7c-.08-.51-.1-1.14.32-1.44a2.55,2.55,0,0,1,.82-.27,2.62,2.62,0,0,0,1.62-2.57,12.71,12.71,0,0,0-.67-3.18,26,26,0,0,1-.23-8.54,5.89,5.89,0,0,1,1.05-3.45c.33-.39.82-.84.62-1.32a1,1,0,0,0-.86-.47c-1.44-.11-2.67.9-4,1.54a16.6,16.6,0,0,1-6.8,1.19l-7.06.21A23.9,23.9,0,0,1,245,37a8.17,8.17,0,0,1-4.81-2.68"/><path class="cls-8" d="M238.55,35.66a30.23,30.23,0,0,1,1.39,12.57,48.38,48.38,0,0,1-.94,6.22,8.72,8.72,0,0,1-2.18,4.77,1.52,1.52,0,0,0,.66,2.51c2.46.67,4.79-.19,7.18-.7a40.84,40.84,0,0,1,7.55-.88,40.1,40.1,0,0,1,7.58.52c2.45.4,4.85,1.15,7.36,1,.87,0,1.83-.94,1.45-1.89a21,21,0,0,1-1-3c-.1-.43-.21-.87-.28-1.31a2.73,2.73,0,0,0-.07-.59c.18.32-.52.26.09.29s1.56-.91,1.91-1.41a4.66,4.66,0,0,0,.79-2.28c.17-2.13-.93-4.2-1.07-6.32a32.58,32.58,0,0,1,.26-6.47,4,4,0,0,1,1-2.14,2.51,2.51,0,0,0,.59-2.29c-.65-1.93-3.06-1.74-4.57-1.11-.86.36-1.62.88-2.46,1.28a10,10,0,0,1-3,.8c-2.1.27-4.25.22-6.36.29-4.19.13-10,1.22-13.12-2.39-1.26-1.47-3.37.66-2.12,2.12,2.56,3,6.6,3.48,10.3,3.41,2.12,0,4.24-.12,6.36-.19a44.43,44.43,0,0,0,6.2-.41,21.29,21.29,0,0,0,5.17-2.08,3.58,3.58,0,0,0,.72-.26l.17,0-.22-1c-.1,0-.61.74-.67.83a6.37,6.37,0,0,0-.88,2.61,37.67,37.67,0,0,0-.38,6.09,20.16,20.16,0,0,0,.28,3c.19,1.17.7,2.3.83,3.48.1.89-.11,1.4-.92,1.69a2.53,2.53,0,0,0-1.76,1.7,6.5,6.5,0,0,0,.25,3.06,21.21,21.21,0,0,0,1.08,3.39l1.45-1.9c-2.54.11-5-.72-7.49-1.08a45.25,45.25,0,0,0-7-.49,46.42,46.42,0,0,0-7,.64c-1.24.21-2.46.49-3.68.79a7.3,7.3,0,0,1-3.76.27l.66,2.5c3.11-2.94,3.51-8.2,3.92-12.21a33,33,0,0,0-1.42-14.27c-.63-1.81-3.53-1-2.89.8Z"/><circle class="cls-9" cx="247.04" cy="41.7" r="2.93"/><circle class="cls-9" cx="245.27" cy="53.99" r="3.64"/><circle class="cls-9" cx="256.39" cy="46.14" r="2.18"/><ellipse class="cls-9" cx="260.57" cy="53.94" rx="3.55" ry="3.3" transform="translate(31.48 189.31) rotate(-42.27)"/><path class="cls-10" d="M365,34.94a13.4,13.4,0,0,0,.24,3.57.41.41,0,0,0,.1.22.39.39,0,0,0,.24.09c.93.11,1.87.19,2.8.23a.58.58,0,0,0,.23,0,.44.44,0,0,0,.15-.4l.08-3.61a.92.92,0,0,0-.13-.59.83.83,0,0,0-.4-.22,6.07,6.07,0,0,0-2.13-.09,2.12,2.12,0,0,0-1.05.26.76.76,0,0,0-.33.94"/><path d="M364.87,34.94a13.09,13.09,0,0,0,0,2c0,.31.06.62.1.93a3.54,3.54,0,0,0,.17.86.53.53,0,0,0,.49.26c.33.05.67.08,1,.11l1,.08a3.55,3.55,0,0,0,.92,0,.46.46,0,0,0,.32-.42c0-.3,0-.63,0-.93l0-2.05c0-.32,0-.65,0-1a.72.72,0,0,0-.28-.6,2.9,2.9,0,0,0-1.67-.31,4.59,4.59,0,0,0-1.84.25.94.94,0,0,0-.52,1.22c.09.18.34,0,.26-.15-.23-.49.35-.83.74-.91a8.37,8.37,0,0,1,1.41-.11,6.45,6.45,0,0,1,.76,0,1.78,1.78,0,0,1,.68.2c.21.16.17.47.16.71V36l0,1.56v.73c0,.12,0,.25,0,.37s-.14.25-.32.24c-.52,0-1,0-1.55-.1l-.73-.07-.34,0a.74.74,0,0,1-.18,0c-.1-.06-.1-.18-.12-.27a13.26,13.26,0,0,1-.22-3.44c0-.2-.29-.2-.3,0Z"/><path class="cls-10" d="M369.06,36.55q14,.33,28.06.16a1.08,1.08,0,0,0,.57-.11,1,1,0,0,0,.38-.63,4.82,4.82,0,0,0,.13-1.31.74.74,0,0,0-.12-.46.76.76,0,0,0-.34-.24,4.9,4.9,0,0,0-1.57-.23c-9-.27-18,.05-27,.37a.45.45,0,0,0-.28.07c-.13.09-.13.27-.12.43a12.14,12.14,0,0,0,.23,1.8"/><path d="M369.06,36.7q7.38.18,14.77.21,3.69,0,7.38,0l3.45,0c.84,0,2.32.29,3.07-.14a2.38,2.38,0,0,0,.48-2.63,1.76,1.76,0,0,0-1.2-.48,25.78,25.78,0,0,0-3.29-.12c-4.9-.09-9.81,0-14.71.11-2.78.07-5.56.17-8.34.27-.44,0-1.57-.19-1.88.19s0,1.78.09,2.35c0,.19.33.11.29-.08-.16-.93-.64-1.82.52-2.13a9.81,9.81,0,0,1,2-.07l3.43-.11c2.45-.08,4.91-.15,7.36-.2s4.91-.08,7.36-.07c1.31,0,2.61,0,3.92,0,1.06,0,3.2-.3,4,.5a1.35,1.35,0,0,1-.57,2.24,7.2,7.2,0,0,1-2,0l-3.69,0h-7.39q-7.5,0-15-.21a.15.15,0,0,0,0,.3Z"/><path class="cls-10" d="M368.76,39q13.65.82,27.32.33a1.93,1.93,0,0,0,1.64-.61c.35-.57,0-1.31.17-2l-20.79-.16-7.79-.06a.57.57,0,0,0-.34.07.51.51,0,0,0-.19.32,3.42,3.42,0,0,0,.08,2.21"/><path d="M368.76,39.18q8.94.52,17.88.51c2.9,0,5.8-.06,8.69-.15.68,0,1.73.07,2.29-.45s.35-1.53.42-2.3a.16.16,0,0,0-.15-.15l-17.82-.14-8.57-.06c-.58,0-2.15-.31-2.65.11-.65.53-.33,2-.14,2.66.06.18.35.11.29-.08a3.48,3.48,0,0,1-.21-1.28c.28-.88.78-1.25,1.5-1.12a12.57,12.57,0,0,1,1.94,0l3.41,0,7.4,0,7.42.06,3.71,0c.74,0,3.09-.36,3.53.28,0,.27,0,.54,0,.81q-.28,1.22-1.35,1.2c-.43,0-.87,0-1.31,0l-4,.1c-2.48,0-5,.06-7.45,0-5,0-9.94-.22-14.9-.51-.19,0-.19.29,0,.3Z"/><path d="M368.35,34.28h.81a.15.15,0,0,0,0-.3h-.81a.15.15,0,0,0,0,.3Z"/><path class="cls-2" d="M451,14.44a14.64,14.64,0,0,0-11,4.45,3.8,3.8,0,0,0-1.2,2.12,3,3,0,0,0,1.7,2.77,8.58,8.58,0,0,0,3.33.76q10.1.9,20.23,1c3,0,6.19,0,9,1.23s5.14,4,4.79,7c-.19,1.67-1.16,3.4-.47,4.94a3,3,0,0,0,4.06,1.1,3.92,3.92,0,0,0,1.62-4.14c-.4-1.84-1.82-4-.5-5.33a3.55,3.55,0,0,1,2.5-.75q8.78-.33,17.54.1a15.51,15.51,0,0,0,6.37-.54c2.36-.9,4.42-3,6.94-2.76,2.13.23,3.84,2.18,6,2.2,2,0,3.59-1.64,4.67-3.31a11.59,11.59,0,0,0,2.1-6,6.18,6.18,0,0,0-2.81-5.47,9.74,9.74,0,0,0-4.41-.93c-2.63-.12-5.27-.21-7.9-.26a27,27,0,0,0-6,.34c-1.66.34-3.25,1-4.9,1.35-6.06,1.36-12.26-.91-18.32-2.25a62.73,62.73,0,0,0-34.88,2.33"/><path class="cls-3" d="M451,13.31a15.94,15.94,0,0,0-9.61,2.93c-2.33,1.69-5.19,4.61-2.73,7.46A6.47,6.47,0,0,0,443,25.58c2.09.25,4.19.37,6.28.51,4.36.29,8.72.48,13.08.54,3.75.06,8.14-.35,11.43,1.8a6.49,6.49,0,0,1,2.88,3.89c.39,1.86-.75,3.58-.64,5.44a4,4,0,0,0,6,3.05,4.78,4.78,0,0,0,2.19-3.45c.24-1.6-.41-3-.85-4.45-.23-.79-.44-1.66.48-2a9.34,9.34,0,0,1,2.94-.21q3.16-.09,6.33-.09c4.16,0,8.37.47,12.52.32a11.69,11.69,0,0,0,5-1.24c1.49-.77,3-2.09,4.77-2.16s3,1.16,4.41,1.75a5.22,5.22,0,0,0,4.29,0c3-1.39,5-5.28,5.59-8.38s-.49-6.59-3.39-8.11a12,12,0,0,0-5-1c-2.22-.11-4.44-.18-6.67-.23a38.1,38.1,0,0,0-6,.16,59.34,59.34,0,0,0-5.87,1.49c-4.07,1-8.26.15-12.24-.8A103.82,103.82,0,0,0,478.57,10a63.83,63.83,0,0,0-23.72,1.6q-2.87.75-5.64,1.76c-1.35.49-.77,2.67.6,2.17a62.35,62.35,0,0,1,21.51-3.74,60.44,60.44,0,0,1,11,1.05c3.68.7,7.26,1.83,10.94,2.5a23.93,23.93,0,0,0,10.65-.11,32.9,32.9,0,0,1,5.52-1.34,46,46,0,0,1,5.63,0c1.89,0,3.79.11,5.68.2s3.8,0,5.21,1.25c2.74,2.39,1.52,6.5-.09,9.12-.73,1.2-1.74,2.59-3.15,3-1.63.48-3.11-.78-4.51-1.42-3-1.39-5.38-.11-8.05,1.4-3.25,1.84-6.85,1.24-10.44,1.12q-5.85-.21-11.69-.08c-2.46.06-6.64-.4-7.07,3-.27,2.11,2.83,6.46-.32,7.64-1.71.64-2.53-.92-2.23-2.38a12.14,12.14,0,0,0,.54-4.55,9,9,0,0,0-5.28-6.28c-3.59-1.61-7.68-1.34-11.51-1.41-4.45-.07-8.89-.27-13.33-.57a51.5,51.5,0,0,1-6.34-.57,3.05,3.05,0,0,1-2.4-1.48c-.37-1,.43-1.74,1.05-2.36a13.65,13.65,0,0,1,9.9-3.84,1.13,1.13,0,0,0,0-2.25Z"/><path class="cls-2" d="M483.79,45a14.18,14.18,0,0,0-.59,2.12,4.92,4.92,0,0,0,.27,3.41,2.18,2.18,0,0,0,3,.92,2.81,2.81,0,0,0,.93-1.5,9.57,9.57,0,0,0-.94-7.76c-.08-.12-.18-.26-.33-.26a.45.45,0,0,0-.27.14,6.75,6.75,0,0,0-2.08,3.77"/><path class="cls-3" d="M482.71,44.71c-.68,1.9-1.24,4.2-.35,6.12.76,1.65,3,2.7,4.65,1.6s2-3.76,1.91-5.58a10.9,10.9,0,0,0-.49-2.94,6.78,6.78,0,0,0-1.34-2.68c-1.2-1.14-2.45.35-3.13,1.3a7.59,7.59,0,0,0-1.29,3,1.16,1.16,0,0,0,.78,1.38,1.14,1.14,0,0,0,1.39-.78,5.52,5.52,0,0,1,1.91-3.37l-.5.29.15,0h-.6c-.34-.33-.43-.37-.26-.12l.15.27c.08.14.15.28.22.42a7.75,7.75,0,0,1,.35.91,8.3,8.3,0,0,1,.39,2,7.88,7.88,0,0,1-.1,2.06,4.35,4.35,0,0,1-.58,1.77s-.25.23-.2.2-.21.06-.11.06a2.16,2.16,0,0,1-.36,0c.23,0-.32-.12-.15,0a1.39,1.39,0,0,1-.89-1,7.31,7.31,0,0,1,.62-4.21,1.13,1.13,0,1,0-2.17-.6Z"/><path class="cls-11" d="M560.5,40.43a95.32,95.32,0,0,0,37.62-1,1.55,1.55,0,0,0,1.19-2.3c-.74-4-3.94-7.28-7.65-9s-7.89-2.15-12-2.23a33,33,0,0,0-10,1,24.83,24.83,0,0,0-7.94,4.15c-2.56,1.93-5,4.68-4.79,7.88a1.63,1.63,0,0,0,.4,1.1,1.88,1.88,0,0,0,.93.35l3.54.66"/><path d="M560.4,40.79A96,96,0,0,0,583.61,42,94.55,94.55,0,0,0,595,40.52c.93-.17,1.86-.36,2.78-.57a2.68,2.68,0,0,0,1.57-.69c.75-.86.37-2.29.08-3.26C597.52,29.75,591,26.74,585,25.93c-7-.95-14.55-.65-20.75,3-2.84,1.7-5.91,4-7.16,7.17-.42,1.06-.88,2.88-.18,3.94a2.16,2.16,0,0,0,1.53.76l3.32.61c.47.08.67-.64.2-.73l-2.21-.4c-1-.18-2.08-.09-2.38-1.34-.35-1.43.63-3.27,1.41-4.38a19.5,19.5,0,0,1,6.78-5.51c5.62-3,12.3-3.21,18.52-2.52,5.58.61,11.63,2.9,14.13,8.35a9.44,9.44,0,0,1,.68,2,2.64,2.64,0,0,1,.07,1.47c-.24.45-1,.69-1.39.83a32.74,32.74,0,0,1-5.11,1,94.66,94.66,0,0,1-9.78,1.09,95.41,95.41,0,0,1-22.07-1.24c-.48-.08-.68.64-.2.72Z"/><path class="cls-12" d="M567.7,29.46l-.66.48S567,30,567,30a.16.16,0,0,0,0,.12.15.15,0,0,0,.2.05l.66-.49a.11.11,0,0,0,.07-.09.14.14,0,0,0,0-.11.16.16,0,0,0-.21-.05Z"/><path class="cls-12" d="M572.14,29.91l.15.47a.15.15,0,0,0,.29-.08l-.15-.47a.16.16,0,0,0-.19-.1.14.14,0,0,0-.1.18Z"/><path class="cls-12" d="M569,31.24l-.4.34a.14.14,0,0,0,0,.11.18.18,0,0,0,.15.15.22.22,0,0,0,.11-.05l.4-.34a.14.14,0,0,0,.05-.1.16.16,0,0,0-.05-.11.18.18,0,0,0-.1,0,.21.21,0,0,0-.11,0Z"/><path class="cls-12" d="M572.83,32.56v.61a.15.15,0,0,0,.15.15.16.16,0,0,0,.15-.15v-.61a.15.15,0,0,0-.15-.15.16.16,0,0,0-.15.15Z"/><path class="cls-12" d="M579.45,32.64h1a.15.15,0,0,0,.15-.15.15.15,0,0,0-.15-.15h-1a.15.15,0,0,0-.15.15.15.15,0,0,0,.15.15Z"/><path class="cls-12" d="M581.53,29.87l.47.21a.14.14,0,0,0,.11,0,.13.13,0,0,0,.09-.07.14.14,0,0,0,0-.11s0-.08-.07-.09l-.47-.21a.17.17,0,0,0-.12,0,.2.2,0,0,0-.09.07.17.17,0,0,0,0,.12.15.15,0,0,0,.07.09Z"/><path class="cls-12" d="M578.42,27.33a2.25,2.25,0,0,1-.09.35s0,0,0,0,0,0,0,0a.56.56,0,0,1,0,.08.8.8,0,0,1-.08.16.15.15,0,0,0,.05.21.16.16,0,0,0,.2-.06,1.82,1.82,0,0,0,.28-.71.14.14,0,0,0-.1-.18.16.16,0,0,0-.19.1Z"/><path class="cls-12" d="M575.39,30.34v.27a.15.15,0,0,0,0,.1.15.15,0,0,0,.22,0,.18.18,0,0,0,0-.1v-.27a.21.21,0,0,0,0-.11.17.17,0,0,0-.22,0,.21.21,0,0,0,0,.11Z"/><path class="cls-12" d="M564.35,33.16l-.39.54a.13.13,0,0,0,0,.12.2.2,0,0,0,.07.09.15.15,0,0,0,.2,0l.4-.55a.16.16,0,0,0,0-.12.2.2,0,0,0-.07-.09.15.15,0,0,0-.2.06Z"/><path class="cls-12" d="M565.93,34.89,566,35a.12.12,0,0,0,.1,0h.06l.05,0a.21.21,0,0,0,0-.11.13.13,0,0,0,0-.1l-.07-.07a.15.15,0,0,0-.11,0h0l-.05,0a.16.16,0,0,0,0,.11.19.19,0,0,0,0,.1Z"/><path class="cls-12" d="M568.9,34.14l.4.42a.17.17,0,0,0,.21,0,.16.16,0,0,0,0-.22l-.39-.41a.16.16,0,0,0-.22,0,.17.17,0,0,0,0,.21Z"/><path class="cls-12" d="M576.05,34.61a1.14,1.14,0,0,0,.94.25.15.15,0,0,0,.11-.18.16.16,0,0,0-.19-.11s-.06,0,0,0h-.32l-.09,0h0l-.05,0-.09,0,0,0h0l0,0a.15.15,0,0,0-.21,0,.14.14,0,0,0,0,.21Z"/><path class="cls-12" d="M586.18,32.84l.74.33a.16.16,0,0,0,.21-.06.15.15,0,0,0-.06-.2l-.74-.33a.16.16,0,0,0-.21.06.15.15,0,0,0,.06.2Z"/><path class="cls-12" d="M583.7,34.14a.47.47,0,0,0,0,.31.48.48,0,0,0,.2.27.14.14,0,0,0,.11,0,.11.11,0,0,0,.09-.07.15.15,0,0,0-.05-.2h0l0,0,0,0,0,0,0-.08,0,0a.94.94,0,0,1,0-.09v0a.41.41,0,0,1,0-.08.15.15,0,0,0,0-.11.16.16,0,0,0-.09-.07.14.14,0,0,0-.11,0l0,0s0,0,0,.06Z"/><path class="cls-12" d="M587.53,31l.34.19a.14.14,0,0,0,.11,0,.16.16,0,0,0,0-.28l-.34-.19a.16.16,0,0,0-.12,0,.2.2,0,0,0-.09.07.16.16,0,0,0,.06.21Z"/><path class="cls-12" d="M585.52,29.14h.87a.15.15,0,0,0,0-.3h-.87a.15.15,0,1,0,0,.3Z"/><path class="cls-12" d="M589.82,30.27l.54.4a.17.17,0,0,0,.12,0,.15.15,0,0,0,.09-.07.16.16,0,0,0-.05-.2L590,30a.13.13,0,0,0-.12,0,.2.2,0,0,0-.09.07.15.15,0,0,0,.06.2Z"/><path class="cls-12" d="M590.09,32.7v.06a.15.15,0,0,0,0,.11.09.09,0,0,0,0,0h.06a.14.14,0,0,0,.1,0,.16.16,0,0,0,0-.11V32.7a.16.16,0,0,0,0-.11l-.05,0h0a.14.14,0,0,0-.15.15Z"/><circle class="cls-13" cx="644.09" cy="52.79" r="19.01"/><circle class="cls-14" cx="644.37" cy="50.02" r="19.01"/><path class="cls-15" d="M640.92,38.81a4.53,4.53,0,0,0-1.22-.07,4.35,4.35,0,0,0-1.19.25,1.14,1.14,0,0,0-.51.27,1.34,1.34,0,0,0-.57,1,1.22,1.22,0,0,0,0,.6,1.5,1.5,0,0,0,.69.89l.36.15a1.33,1.33,0,0,0,.79,0,3,3,0,0,1,.71-.18l-.39,0a2.82,2.82,0,0,1,.82,0l-.4-.06.09,0a1.11,1.11,0,0,0,.6,0,1.22,1.22,0,0,0,.55-.17,1.13,1.13,0,0,0,.42-.39,1.06,1.06,0,0,0,.27-.51l.06-.4a1.48,1.48,0,0,0-.21-.76l-.23-.3a1.47,1.47,0,0,0-.67-.39Z"/><path class="cls-15" d="M640.72,44.17l-1.85-.2a16.66,16.66,0,0,0-1.72-.16,2.66,2.66,0,0,0-2,.85,5.17,5.17,0,0,0-.54.78s-.11.24-.14.24.31-.29.08-.12.34-.23.12-.09a1.5,1.5,0,0,0,1.51,2.59,3.2,3.2,0,0,0,1.08-1.2l.12-.21c.19-.29-.11.13,0,.05.21-.23-.29.17,0,0-.38.2-.13.06,0,0l-.4.06a7.85,7.85,0,0,1,1.81.13l2,.21a1.5,1.5,0,0,0,1.06-.44,1.52,1.52,0,0,0,.44-1.06,1.46,1.46,0,0,0-.44-1.06,1.66,1.66,0,0,0-1.06-.44Z"/><path class="cls-15" d="M637.67,48c0-.06.14-.29,0-.12a1.09,1.09,0,0,0-.08.15c-.15.25.16-.18,0-.06l-.12.13a6.77,6.77,0,0,1-.56.51l.09-.07-.16.12-.36.25-.69.46c-.46.29-.93.55-1.41.8l-.75.36-.18.08-.09,0c.21-.09,0,0-.05,0l-.22.09a1.64,1.64,0,0,0-.9.69A1.5,1.5,0,0,0,634,53.69a20.73,20.73,0,0,0,3.59-1.79c.57-.38,1.13-.78,1.67-1.21a4.38,4.38,0,0,0,1.33-1.85,1.5,1.5,0,0,0-1-1.85,1.54,1.54,0,0,0-1.84,1Z"/><path class="cls-15" d="M640.81,51.25l-3.28,3.19a1.56,1.56,0,0,0-.44,1.06,1.54,1.54,0,0,0,.44,1.06,1.47,1.47,0,0,0,1.06.44,1.56,1.56,0,0,0,1.06-.44l3.28-3.19a1.56,1.56,0,0,0,.44-1.06,1.54,1.54,0,0,0-.44-1.06,1.47,1.47,0,0,0-1.06-.44,1.56,1.56,0,0,0-1.06.44Z"/><path class="cls-15" d="M639,56.53a2.82,2.82,0,0,1,0,.58l.06-.4a3.26,3.26,0,0,1-.23.81l.15-.36a3.43,3.43,0,0,1-.4.69l.24-.31a3,3,0,0,1-.57.56l.31-.23-.24.16a1.55,1.55,0,0,0-.69.9,1.49,1.49,0,0,0,.15,1.15,1.43,1.43,0,0,0,.89.69,1.52,1.52,0,0,0,1.16-.15,4.52,4.52,0,0,0,1.65-1.74,4.45,4.45,0,0,0,.42-1.12,4.25,4.25,0,0,0,.12-1.23,1.54,1.54,0,0,0-.44-1.06,1.5,1.5,0,0,0-1.06-.44,1.46,1.46,0,0,0-1.06.44,1.5,1.5,0,0,0-.44,1.06Z"/><path class="cls-15" d="M642.93,57.23l.07,2.44a1.61,1.61,0,0,0,.44,1.06,1.56,1.56,0,0,0,1.06.44,1.59,1.59,0,0,0,1.07-.44,1.51,1.51,0,0,0,.43-1.06l-.07-2.44a1.5,1.5,0,0,0-1.5-1.5,1.54,1.54,0,0,0-1.06.44,1.47,1.47,0,0,0-.44,1.06Z"/><path class="cls-15" d="M645,55.62a8.62,8.62,0,0,0,1,3.58,2.32,2.32,0,0,0,2.56,1.22,2,2,0,0,0,.83-.48,2.14,2.14,0,0,0,.51-.84,2.72,2.72,0,0,0,.15-.94,1.59,1.59,0,0,0-.44-1.06,1.5,1.5,0,0,0-2.56,1.06c0,.09,0,.18,0,.28l0-.4a.77.77,0,0,1-.07.26l.15-.35-.07.11.24-.3-.1.09.31-.24-.09,0,.36-.15-.1,0,.4-.05a.38.38,0,0,1-.15,0l.4.06-.19,0,.36.15a.57.57,0,0,1-.13-.08l.3.24a1.7,1.7,0,0,1-.19-.19l.23.31a4.15,4.15,0,0,1-.42-.81l.15.36a7.23,7.23,0,0,1-.49-1.78l.06.4c0-.16,0-.31-.05-.47a1.61,1.61,0,0,0-.44-1.06,1.52,1.52,0,0,0-1.06-.44,1.5,1.5,0,0,0-1.06.44,1.46,1.46,0,0,0-.44,1.06Z"/><path class="cls-15" d="M647.24,53a7.23,7.23,0,0,0,.65,4.08,3.1,3.1,0,0,0,1.93,1.56,2.37,2.37,0,0,0,2.64-1.14,1.64,1.64,0,0,0,.15-1.15,1.52,1.52,0,0,0-.69-.9,1.5,1.5,0,0,0-1.15-.15,1.43,1.43,0,0,0-.9.69,1,1,0,0,1-.08.14l.23-.3a1.06,1.06,0,0,1-.15.15l.31-.24-.19.11.35-.16a.83.83,0,0,1-.21.06l.4-.05a1.31,1.31,0,0,1-.28,0l.4.05a1,1,0,0,1-.23-.06l.36.15a1.57,1.57,0,0,1-.33-.19l.31.24a2.42,2.42,0,0,1-.32-.32l.24.3a3.14,3.14,0,0,1-.37-.64l.15.35a4.2,4.2,0,0,1-.26-1l.06.4a10.08,10.08,0,0,1,0-2,1.5,1.5,0,0,0-3,0Z"/><path class="cls-15" d="M648.41,49.45c0,1-.07,1.95-.08,2.92a3.63,3.63,0,0,0,1,2.87,1.56,1.56,0,0,0,1.81.24,1.88,1.88,0,0,0,.92-1.18,1.5,1.5,0,1,0-2.89-.8l0,.06.15-.36a.24.24,0,0,1-.06.11l.24-.3,0,0,.31-.23-.11.07,1.82.23a1.7,1.7,0,0,1-.19-.19l.24.31a1.68,1.68,0,0,1-.2-.34l.15.36a2.34,2.34,0,0,1-.16-.59l.06.4a10.1,10.1,0,0,1,0-1.65l0-2a1.5,1.5,0,0,0-3,0Z"/><path class="cls-15" d="M649.05,48.28l1.16,2.55.29.63a1.64,1.64,0,0,0,1.66.87,1.58,1.58,0,0,0,1-.46,1.41,1.41,0,0,0,.33-.44,1.93,1.93,0,0,0,.23-.89,2.62,2.62,0,0,1,0-.28l-.06.4a.65.65,0,0,1,0-.13l-.15.36,0,0-.23.31,0,0a1.63,1.63,0,0,0,.44-1.07A1.51,1.51,0,0,0,651.2,49a1.83,1.83,0,0,0-.49,1.06,4.71,4.71,0,0,0,0,.53l.05-.4a.19.19,0,0,1,0,.08l.15-.35a.6.6,0,0,1-.06.11l.23-.31,0,0,.31-.23-.07,0,.36-.16h0l.39,0h0l.76.21,0,0,.3.24-.06-.06.24.3c-.14-.25-.25-.53-.37-.79l-.37-.81-.75-1.65a1.52,1.52,0,0,0-.9-.69,1.5,1.5,0,0,0-1.84,1.05l-.06.4a1.51,1.51,0,0,0,.21.75Z"/><path class="cls-15" d="M650.58,44a14.64,14.64,0,0,0,1.47,3,1.5,1.5,0,0,0,2.05.54,1.55,1.55,0,0,0,.69-.9,1.49,1.49,0,0,0-.15-1.15,12.91,12.91,0,0,1-1.07-2l.15.36c-.09-.21-.17-.42-.25-.63a1.55,1.55,0,0,0-.69-.9,1.5,1.5,0,0,0-2,.54,1.46,1.46,0,0,0-.15,1.15Z"/><path class="cls-15" d="M649,40.14a26.6,26.6,0,0,0-.06,3.34,1.5,1.5,0,0,0,1.5,1.5,1.47,1.47,0,0,0,1.06-.44,1.54,1.54,0,0,0,.44-1.06,26.6,26.6,0,0,1,.06-3.34,1.52,1.52,0,0,0-.44-1.06,1.56,1.56,0,0,0-1.06-.44,1.54,1.54,0,0,0-1.06.44,1.74,1.74,0,0,0-.44,1.06Z"/><path class="cls-15" d="M650.94,41.82a3.14,3.14,0,0,0,1-.39,4.94,4.94,0,0,0,.59-.43,1.6,1.6,0,0,0,.27-.25,4.81,4.81,0,0,0,.44-.57,1.57,1.57,0,0,0,.19-.33,5.52,5.52,0,0,0,.27-.67,5,5,0,0,0,.11-.75,1.06,1.06,0,0,0-.13-.58,1.11,1.11,0,0,0-.31-.49,1.21,1.21,0,0,0-.48-.31,1.14,1.14,0,0,0-.58-.12,1.49,1.49,0,0,0-1.06.43l-.23.31a1.43,1.43,0,0,0-.21.76.25.25,0,0,1,0,.08l.06-.4a2.46,2.46,0,0,1-.15.53l.15-.36a1.92,1.92,0,0,1-.29.5l.24-.3a2.91,2.91,0,0,1-.43.43l.3-.24a2.25,2.25,0,0,1-.47.28l.35-.15a2.23,2.23,0,0,1-.44.13,1.14,1.14,0,0,0-.51.27,1.34,1.34,0,0,0-.57,1,1.22,1.22,0,0,0,0,.6,1.5,1.5,0,0,0,.69.89l.36.15a1.33,1.33,0,0,0,.79,0Z"/><path class="cls-15" d="M643.92,39.49c.45-.4.91-.78,1.38-1.15l-.3.23.4-.3a1.13,1.13,0,0,0,.42-.39,1,1,0,0,0,.27-.51,1.22,1.22,0,0,0,0-.6,1.09,1.09,0,0,0-.18-.55,1.49,1.49,0,0,0-.9-.69l-.39-.06a1.43,1.43,0,0,0-.76.21c-.72.53-1.42,1.09-2.09,1.69a1.14,1.14,0,0,0-.31.48,1.08,1.08,0,0,0-.13.58,1.06,1.06,0,0,0,.13.58,1,1,0,0,0,.31.48,1.46,1.46,0,0,0,1.06.44l.4,0a1.49,1.49,0,0,0,.66-.39Z"/><path class="cls-15" d="M647.39,38.22v-.89c0-.28,0-.56,0-.83l0,.4a.66.66,0,0,1,0-.15l-.15.35a.25.25,0,0,1,0-.07l-.24.3.07-.06-.3.23.05,0-.36.15.08,0-.4,0h.12l-.4-.06a1.66,1.66,0,0,1,.21.06l-.35-.15a5,5,0,0,1,1,.65l-.3-.23.53.44a1.56,1.56,0,0,0,1.06.44,1.5,1.5,0,0,0,1.5-1.5,1.52,1.52,0,0,0-.44-1.06,10.6,10.6,0,0,0-1.24-1,5.29,5.29,0,0,0-.5-.32,2.23,2.23,0,0,0-1.18-.3,1.78,1.78,0,0,0-.48.08,1.94,1.94,0,0,0-.71.41,1.85,1.85,0,0,0-.5.81,2.54,2.54,0,0,0-.09.91v1.36a1.59,1.59,0,0,0,.44,1.06,1.11,1.11,0,0,0,.49.31,1,1,0,0,0,.57.13,1.46,1.46,0,0,0,1.06-.44,1.5,1.5,0,0,0,.44-1.06Z"/><path class="cls-15" d="M651.06,39.81a7.55,7.55,0,0,1,.58-.89l-.23.3a7.21,7.21,0,0,1,.58-.66,1,1,0,0,0,.31-.48,1.15,1.15,0,0,0,.13-.58,1.17,1.17,0,0,0-.13-.58,1.14,1.14,0,0,0-.31-.48,1.52,1.52,0,0,0-1.06-.44l-.4.06a1.57,1.57,0,0,0-.66.38,9.48,9.48,0,0,0-.87,1,7.81,7.81,0,0,0-.53.83,1.09,1.09,0,0,0-.18.55,1.22,1.22,0,0,0,0,.6,1.14,1.14,0,0,0,.27.51,1.21,1.21,0,0,0,.42.39,1.56,1.56,0,0,0,1.16.15,1.53,1.53,0,0,0,.89-.69Z"/><path class="cls-11" d="M846.89,15.78a115.72,115.72,0,0,0,27.38,20.28,2,2,0,0,0,.59.25,1.1,1.1,0,0,0,1.21-.81c1.12-2.56.17-6.07-1.78-9a35,35,0,0,0-7.69-7.82,40.37,40.37,0,0,0-7.56-5,26.59,26.59,0,0,0-7.4-2.18c-2.63-.38-5.51-.25-6.68,1.57a.93.93,0,0,0-.16.8,2,2,0,0,0,.52.7l2.27,2.31"/><path d="M846.63,16.05a117.06,117.06,0,0,0,15,12.66c2.66,1.88,5.4,3.66,8.2,5.31,1.39.81,2.79,1.68,4.24,2.37.79.37,1.49.46,2.07-.3,1.47-1.92.7-5.15-.12-7.14a21.56,21.56,0,0,0-5.12-7.07c-4.62-4.49-10.2-8.69-16.55-10.23-2.54-.62-5.9-1.32-8.35,0-.75.41-1.78,1.26-1.58,2.23a2.07,2.07,0,0,0,.63,1c.72.79,1.51,1.54,2.27,2.3.34.35.87-.18.53-.53-.62-.62-3-2.34-2.57-3.35s2.32-1.45,3.34-1.53A20.34,20.34,0,0,1,856.35,13c5.23,1.77,9.93,5.47,13.87,9.26A22,22,0,0,1,875,28.49a11.16,11.16,0,0,1,1.14,3.94c.09,1.1.09,3.78-1.69,3.31a15.53,15.53,0,0,1-3.28-1.82c-1.22-.69-2.42-1.42-3.61-2.16q-3.3-2.07-6.46-4.35a115.42,115.42,0,0,1-14-11.89c-.34-.34-.88.19-.53.53Z"/><path class="cls-12" d="M856.61,13.88l-.67-.11a.16.16,0,0,0-.19.11c0,.07,0,.17.11.18l.67.11a.25.25,0,0,0,.12,0,.16.16,0,0,0,.07-.09c0-.07,0-.17-.11-.18Z"/><path class="cls-12" d="M859.54,16.62l-.08.34a.14.14,0,0,0,0,.11.2.2,0,0,0,.09.07.17.17,0,0,0,.12,0,.28.28,0,0,0,.07-.09l.08-.34a.14.14,0,0,0,0-.11.13.13,0,0,0-.09-.07.14.14,0,0,0-.11,0,.16.16,0,0,0-.07.09Z"/><path class="cls-12" d="M856.77,15.52l-.43,0a.18.18,0,0,0-.1,0,.16.16,0,0,0,0,.11.22.22,0,0,0,0,.11.18.18,0,0,0,.1,0l.43,0s.08,0,.11,0a.21.21,0,0,0,0-.11.14.14,0,0,0,0-.1.22.22,0,0,0-.11-.05Z"/><path class="cls-12" d="M859,18.41l-.25.32a.23.23,0,0,0,0,.12.14.14,0,0,0,.07.08.17.17,0,0,0,.12,0l0,0a.12.12,0,0,0,.05-.05l.25-.32a.17.17,0,0,0,0-.12.15.15,0,0,0-.07-.09.11.11,0,0,0-.11,0h0s0,0,0,.06Z"/><path class="cls-12" d="M863.67,22.15l.73.56a.22.22,0,0,0,.11,0,.13.13,0,0,0,.09-.07.15.15,0,0,0-.05-.21l-.73-.56a.14.14,0,0,0-.11,0,.13.13,0,0,0-.09.07.16.16,0,0,0,0,.2Z"/><path class="cls-12" d="M866.3,21.82l.25.37a.16.16,0,0,0,.09.07.15.15,0,0,0,.11,0,.16.16,0,0,0,.07-.09.14.14,0,0,0,0-.11l-.26-.37a.13.13,0,0,0-.08-.07.16.16,0,0,0-.12,0,.16.16,0,0,0-.07.09.13.13,0,0,0,0,.12Z"/><path class="cls-12" d="M865.12,18.7h0l0,0a1.09,1.09,0,0,1-.23.14l0,0a1.11,1.11,0,0,1-.22.07.16.16,0,0,0-.11.19.15.15,0,0,0,.19.1,1.36,1.36,0,0,0,.53-.25.14.14,0,0,0,0-.11.13.13,0,0,0,0-.1.16.16,0,0,0-.11-.05.14.14,0,0,0-.1.05Z"/><path class="cls-12" d="M861.7,18.64l-.11.14s0,0,0,0v.06l0,.06,0,0a.17.17,0,0,0,.12,0l0,0a.12.12,0,0,0,.05-.05l.11-.14a.14.14,0,0,0,0-.06.13.13,0,0,0,0-.06.08.08,0,0,0,0-.05s0,0,0,0a.13.13,0,0,0-.12,0h0a.1.1,0,0,0,0,.06Z"/><path class="cls-12" d="M852.67,14l-.51.07a.16.16,0,0,0-.09.07.16.16,0,0,0,0,.12.31.31,0,0,0,.07.09.17.17,0,0,0,.12,0l.51-.07a.2.2,0,0,0,.09-.07.24.24,0,0,0,0-.12.15.15,0,0,0-.07-.09.14.14,0,0,0-.11,0Z"/><path class="cls-12" d="M853,15.87l0,.07a.16.16,0,0,0,.07.09l0,0h.06a.13.13,0,0,0,.09-.07.17.17,0,0,0,0-.12l0-.07a.16.16,0,0,0-.07-.09l-.06,0h-.06a.15.15,0,0,0-.09.07.2.2,0,0,0,0,.11Z"/><path class="cls-12" d="M855.48,17.12l.12.43a.14.14,0,0,0,.18.11.15.15,0,0,0,.1-.19l-.11-.43a.15.15,0,0,0-.18-.11.16.16,0,0,0-.11.19Z"/><path class="cls-12" d="M860.41,21.31A1.32,1.32,0,0,0,861,22a.15.15,0,0,0,.21-.06.16.16,0,0,0-.06-.2l-.07-.05,0,0h0l0,0a.8.8,0,0,1-.13-.13l0,0v0s0,0,0,0l-.05-.08,0-.07,0,0s0,0,0,0a0,0,0,0,0,0,0,.18.18,0,0,0-.07-.09.21.21,0,0,0-.11,0c-.07,0-.14.11-.11.18Z"/><path class="cls-12" d="M868.41,26l.4.59a.16.16,0,0,0,.21.05.15.15,0,0,0,.05-.2l-.4-.59a.16.16,0,0,0-.21-.05.15.15,0,0,0-.05.2Z"/><path class="cls-12" d="M866.13,25.22a.34.34,0,0,0-.17.2.57.57,0,0,0,0,.13s0,.05,0,.08a.3.3,0,0,0,0,.08.13.13,0,0,0,.09.07.15.15,0,0,0,.11,0,.16.16,0,0,0,.07-.09v0a.19.19,0,0,0,0-.07v0s0,0,0-.07v0a.07.07,0,0,1,0-.05l0,0,0,0,0,0,0,0,0,0,0,0a.2.2,0,0,0,.07-.09.13.13,0,0,0,0-.12.18.18,0,0,0-.08-.07h0l-.08,0Z"/><path class="cls-12" d="M870.16,25.71l.16.29a.16.16,0,0,0,.09.07.17.17,0,0,0,.12,0,.11.11,0,0,0,.06-.09.14.14,0,0,0,0-.11l-.16-.29a.15.15,0,0,0-.09-.07.16.16,0,0,0-.12,0,.16.16,0,0,0-.07.09.17.17,0,0,0,0,.12Z"/><path class="cls-12" d="M869.47,23.63l.62.49a.17.17,0,0,0,.12,0,.15.15,0,0,0,.09-.07.11.11,0,0,0,0-.11.15.15,0,0,0-.06-.09l-.63-.48a.13.13,0,0,0-.12,0,.2.2,0,0,0-.09.07.11.11,0,0,0,0,.11.13.13,0,0,0,.07.09Z"/><path class="cls-12" d="M872.07,26.61l.24.52a.13.13,0,0,0,.09.07.15.15,0,0,0,.11,0,.16.16,0,0,0,.07-.09.25.25,0,0,0,0-.12l-.24-.51a.13.13,0,0,0-.09-.07.15.15,0,0,0-.11,0,.16.16,0,0,0-.07.09.2.2,0,0,0,0,.11Z"/><path class="cls-12" d="M871.27,28l0,0a.14.14,0,0,0,0,.06s0,0,0,.06,0,0,0,0,0,0,0,0a.17.17,0,0,0,.12,0l0,0,.06-.05,0,0a.14.14,0,0,0,0-.06s0,0,0-.06l0-.05a.08.08,0,0,0,0,0,.17.17,0,0,0-.12,0l0,0-.06.05Z"/></svg>