<svg id="Layer_1" data-name="Layer 1" xmlns="http://www.w3.org/2000/svg" viewBox="0 0 252.29 338.71"><defs><style>.cls-1{fill:#050708;}.cls-2{fill:#e11e26;}.cls-3{fill:#fff;}</style></defs><title>UchihaSymbolNoBackground</title><path class="cls-1" d="M262.75,86.72a126,126,0,0,1,49.08,12.47c25.58,12.45,44.95,31.3,57.83,56.7a116.84,116.84,0,0,1,10.81,32.6A98.35,98.35,0,0,1,382,202a2.35,2.35,0,0,1,.06.79v1.69c0,.23-.08.48.11.69V214c-.21.26-.07.57-.11.86v1.72a2.41,2.41,0,0,1-.06.8,116.54,116.54,0,0,1-4.29,25.33l-1.85-1.78a148,148,0,0,0-34.72-24.64,175.58,175.58,0,0,0-43.61-15.59,191.17,191.17,0,0,0-19.61-3.2,198,198,0,0,0-27.86-1.12c-4.29.13-8.56.39-12.82.81-6.46.64-12.88,1.57-19.25,2.85a180.83,180.83,0,0,0-30,8.7,158.15,158.15,0,0,0-43.3,24.93q-4.77,3.9-9.17,8.22a3,3,0,0,1-.87.72,120.65,120.65,0,0,1-4.44-26.92c-.11-1.4-.17-2.8-.21-4.21,0-.11-.05-.23-.07-.35,0-1,0-1.9,0-2.85,0-.13,0-.24.07-.36.06-1.42.1-2.84.22-4.25a120.82,120.82,0,0,1,30.43-74.29,125.77,125.77,0,0,1,65-39.17,118.58,118.58,0,0,1,18.45-3.06l4.93-.4a3.09,3.09,0,0,1,1.05-.08h3.14c.5-.06,1,.12,1.51-.11h2.95c.48.23,1,0,1.49.11h1.94A7.42,7.42,0,0,1,262.75,86.72Z" transform="translate(-129.91 -86.54)"/><path class="cls-1" d="M274.92,425.2c-.35,0-.7.05-1.05.05H238.43c-.32,0-.63,0-1,0,0-.42,0-.84,0-1.26v-91.3c0-1.33,0-1.32-1.29-1.53a125.83,125.83,0,0,1-68.47-33.87,122.23,122.23,0,0,1-22.83-29.79,1.48,1.48,0,0,1,.15-1.91,112.86,112.86,0,0,1,27.11-25.49,140.14,140.14,0,0,1,42.44-19.14,156.29,156.29,0,0,1,19.78-4,164,164,0,0,1,19.94-1.43,159.8,159.8,0,0,1,20.28,1,151.42,151.42,0,0,1,47.1,13,125.78,125.78,0,0,1,33.9,22.79,108.6,108.6,0,0,1,11.91,13.35,1.29,1.29,0,0,1,.1,1.65,124.78,124.78,0,0,1-54.52,52.12,123.48,123.48,0,0,1-33.1,11q-2.28.42-4.56.78c-.34.06-.5.17-.48.52s0,.57,0,.85v91.3C274.93,424.36,274.92,424.78,274.92,425.2Z" transform="translate(-129.91 -86.54)"/><path class="cls-2" d="M376.38,237.89c-1.45-1.29-2.75-2.46-4.07-3.61a150.49,150.49,0,0,0-25.05-17.55,176.22,176.22,0,0,0-46.39-17.85Q292,196.8,283,195.61q-7.78-1-15.61-1.48c-4.91-.27-9.82-.44-14.73-.31-5.33.13-10.65.42-16,.94a189.55,189.55,0,0,0-30.81,5.54,170.09,170.09,0,0,0-53.35,24.33,142.78,142.78,0,0,0-15.77,12.63l-.47.42a1.9,1.9,0,0,1-.27.07,26.56,26.56,0,0,1-.89-3.62,118.76,118.76,0,0,1-2.2-15.71c-.25-3.68-.43-7.36-.33-11a124.78,124.78,0,0,1,1.78-18.19,117.18,117.18,0,0,1,12.26-35.33A119.91,119.91,0,0,1,163,130.46a124.34,124.34,0,0,1,70.48-39.32,134,134,0,0,1,18-2,119,119,0,0,1,12.53.14,125.06,125.06,0,0,1,51.35,14.47A122.85,122.85,0,0,1,340,121,120.65,120.65,0,0,1,368.36,159a116.56,116.56,0,0,1,9.45,29,115.27,115.27,0,0,1,1.7,13.34c.22,3.37.4,6.73.31,10.1a128.88,128.88,0,0,1-.93,13q-.79,6.15-2.18,12.2C376.63,237,376.52,237.37,376.38,237.89Z" transform="translate(-129.91 -86.54)"/><path class="cls-3" d="M240,375.93V330.12c0-1,0-1-.94-1.11a115.94,115.94,0,0,1-12.39-2.31,123.47,123.47,0,0,1-49.3-24.27A120.9,120.9,0,0,1,148,267.8c-.76-1.33-.79-.89.13-2.06a111.72,111.72,0,0,1,30.23-26.67A140.47,140.47,0,0,1,219,222.4a156.93,156.93,0,0,1,18.63-3.31c5.44-.63,10.91-1,16.39-1a151.61,151.61,0,0,1,16.09.58c25,2.27,48.3,9.68,69.22,23.86a108.19,108.19,0,0,1,24.95,23.22c.78,1,.78,1,.17,2.07A123.87,123.87,0,0,1,279.81,328c-2.18.41-4.35.78-6.54,1-.85.11-.85.12-.86,1V421.5c0,1.26,0,1.26-1.3,1.26H241c-1.15,0-1,.11-1-1V375.93Z" transform="translate(-129.91 -86.54)"/></svg>